<svg viewBox="0 0 1080 1080" fill="none" xmlns="http://www.w3.org/2000/svg">      <defs>  <filter id="filter" x="-20%" y="-20%" width="140%" height="140%" filterUnits="objectBoundingBox" primitiveUnits="userSpaceOnUse" color-interpolation-filters="linearRGB">    <feMorphology operator="dilate" radius="20 20" in="SourceAlpha" result="morphology"/>    <feFlood flood-color="#ffffff" flood-opacity="1" result="flood"/>    <feComposite in="flood" in2="morphology" operator="in" result="composite"/>    <feMerge result="merge">          <feMergeNode in="composite" result="mergeNode"/>      <feMergeNode in="SourceGraphic" result="mergeNode1"/>      </feMerge>  </filter></defs>      <g id="notion-avatar" filter="url(#filter)">        <g id="notion-avatar-face" fill="#ffffff">      <!--?xml version="1.0" encoding="UTF-8"?-->    <title>Face/ 7</title>    <g id="Face/-7" stroke="none" stroke-width="1" fill-rule="evenodd" stroke-linecap="round" stroke-linejoin="round">        <path d="M532,379 C664.54834,379 772,486.45166 772,619 C772,751.54834 764.54834,919 572,919 C415.13263,919 351.668898,801.612202 313.752775,718.980575 L313.322946,718.989282 L312,719 C267.81722,719 232,683.18278 232,639 C232,599.134956 261.158843,566.080325 299.312086,560.00055 C325.599297,455.979213 419.809919,379 532,379 Z M295.858895,624.545187 L304.141105,655.454813" id="Path" stroke="#000000" stroke-width="24"/>    </g>    </g><g id="notion-avatar-nose">      <!--?xml version="1.0" encoding="UTF-8"?-->    <title>Nose/ 0</title>    <g id="Nose/-0" stroke="none" stroke-width="1" fill="none" fill-rule="evenodd" stroke-linecap="round" stroke-linejoin="round">        <line x1="637" y1="596" x2="661.856189" y2="682.499537" id="Line" stroke="#000000" stroke-width="16" transform="translate(649.428094, 639.249768) rotate(1.032339) translate(-649.428094, -639.249768) "/>    </g>    </g><g id="notion-avatar-mouth">      <g id="Mouth/ 14"><g id="Group"><path id="Path" fill-rule="evenodd" clip-rule="evenodd" d="M555.87 801.555C536.147 789.209 521.396 768.019 521.396 768.019C521.396 768.019 569 757.637 609 757.319C649 757 696.604 768.019 696.604 768.019C696.604 768.019 681.852 789.209 662.129 801.555C653.101 807.207 625 810 609.443 810C593.886 810 564.806 807.15 555.87 801.555Z" stroke="black" stroke-width="16" stroke-linecap="round" stroke-linejoin="round"/><path id="Path_2" d="M569.322 801C569.322 801 589.161 793 609 793C628.838 793 648.677 801 648.677 801" stroke="black" stroke-width="8" stroke-linecap="round" stroke-linejoin="round"/></g></g>    </g><g id="notion-avatar-eyes">      <!--?xml version="1.0" encoding="UTF-8"?-->    <title>Eyes/ 4</title>    <g id="Eyes/-4" stroke="none" stroke-width="1" fill="none" fill-rule="evenodd">        <path d="M570,516 C583.254834,516 594,526.745166 594,540 C594,553.254834 583.254834,564 570,564 C556.745166,564 546,553.254834 546,540 C546,526.745166 556.745166,516 570,516 Z M708,516 C721.254834,516 732,526.745166 732,540 C732,553.254834 721.254834,564 708,564 C694.745166,564 684,553.254834 684,540 C684,526.745166 694.745166,516 708,516 Z M562,526 C558.686292,526 556,528.686292 556,532 C556,535.313708 558.686292,538 562,538 C565.313708,538 568,535.313708 568,532 C568,528.686292 565.313708,526 562,526 Z M700,526 C696.686292,526 694,528.686292 694,532 C694,535.313708 696.686292,538 700,538 C703.313708,538 706,535.313708 706,532 C706,528.686292 703.313708,526 700,526 Z" id="Combined-Shape" fill="#000000"/>    </g>    </g><g id="notion-avatar-eyebrows">      <g id="Eyebrows/ 12"><g id="Group"><path id="Path" fill-rule="evenodd" clip-rule="evenodd" d="M681 505.316C681 505.316 698.641 492.863 706.392 490.578C714.144 488.294 738 489.316 738 489.316L755 494.913C755 494.913 730.25 494.897 716.549 497.08C702.848 499.263 681 505.316 681 505.316Z" fill="black" stroke="black" stroke-width="8" stroke-linecap="round" stroke-linejoin="round"/><path id="Path_2" fill-rule="evenodd" clip-rule="evenodd" d="M597 505.316C597 505.316 579.359 492.863 571.608 490.578C563.856 488.294 540 489.316 540 489.316L523 494.913C523 494.913 547.75 494.897 561.451 497.08C575.152 499.263 597 505.316 597 505.316Z" fill="black" stroke="black" stroke-width="8" stroke-linecap="round" stroke-linejoin="round"/></g></g>    </g><g id="notion-avatar-glasses">      <!--?xml version="1.0" encoding="UTF-8"?-->    <title>Glasses/ 3</title>    <g id="Glasses/-3" stroke="none" stroke-width="1" fill="none" fill-rule="evenodd" stroke-linecap="round" stroke-linejoin="round">        <g id="Group" transform="translate(293.000000, 488.000000)" stroke="#000000" stroke-width="8">            <path d="M197.493245,10.4280671 C174.636102,27.3582996 188.604356,103.544346 244.477372,103.544346 C300.350388,103.544346 337.149222,42.6997481 325.747213,20.1024857 C314.345204,-2.49477675 220.350388,-6.50216547 197.493245,10.4280671 Z" id="Path"/>            <path d="M376.540864,10.4280671 C353.683721,27.3582996 367.651975,103.544346 423.524991,103.544346 C479.398007,103.544346 516.196841,42.6997481 504.794832,20.1024857 C493.392823,-2.49477675 399.398007,-6.50216547 376.540864,10.4280671 Z" id="Path" transform="translate(436.458153, 51.772173) scale(-1, 1) translate(-436.458153, -51.772173) "/>            <line x1="301.285714" y1="5.44186047" x2="392.714286" y2="5.44186047" id="Path"/>            <line x1="326.68254" y1="21.1627907" x2="367.31746" y2="21.1627907" id="Path"/>            <line x1="186.554557" y1="30.8015819" x2="1.25992802" y2="69.9860126" id="Path" transform="translate(94.259928, 50.646655) rotate(1.361411) translate(-94.259928, -50.646655) "/>        </g>    </g>    </g><g id="notion-avatar-hair">      <!--?xml version="1.0" encoding="UTF-8"?-->    <title>Hairstyle/ 18</title>    <g id="Hairstyle/-18" stroke="none" stroke-width="1" fill="none" fill-rule="evenodd" stroke-linecap="round" stroke-linejoin="round">        <path d="M761,317 C805,388 810,450 809.87628,559 C809.820256,606.166783 801.152835,693.83345 783.874017,822 L683.874017,822 C720.956593,800.210827 746.623259,765.877494 760.874017,719 C782.250154,648.68376 783.874017,605 771.874017,552 C763.874017,516.666667 680.53461,482.720366 649,454 C627.976927,434.85309 609.643593,413.519756 594,390 C562,440 525.333333,478 484,504 C422,543 382.003665,540.91532 304,565 C252.666667,579 226.874017,595.666667 226.874017,639 C226.874017,682.333333 252.540684,711 303.874017,725 C313.306229,745.813537 324.306229,763.14687 336.874017,777 C345.12749,786.097578 363.460823,801.097578 391.874017,822 L202.874017,822 C155.937523,605.42859 180.063506,437.761923 227,347 C273.467129,257.145696 375,186 511,186 C647,186 717,246 761,317 Z" id="Path" stroke="#000000" stroke-width="12" fill="#000000"/>    </g>    </g><g id="notion-avatar-accessories">      <!--?xml version="1.0" encoding="UTF-8"?-->    <title>Accessories/ 0</title>    <g id="Accessories/-0" stroke="none" stroke-width="1" fill="none" fill-rule="evenodd"/>    </g><g id="notion-avatar-details">      <!--?xml version="1.0" encoding="UTF-8"?-->    <title>Details/ 0</title>    <g id="Details/-0" stroke="none" stroke-width="1" fill="none" fill-rule="evenodd"/>    </g><g id="notion-avatar-beard">      <!--?xml version="1.0" encoding="UTF-8"?-->    <title>Beard/ 0</title>    <g id="Beard/-0" stroke="none" stroke-width="1" fill="none" fill-rule="evenodd"/>    </g>      </g>      </svg>