<?xml version="1.0" encoding="utf-8"?><!-- Uploaded to: SVG Repo, www.svgrepo.com, Generator: SVG Repo Mixer Tools -->
<svg width="800px" height="800px" viewBox="0 0 960 960" fill="none" xmlns="http://www.w3.org/2000/svg">
<path d="M864.189 226.74C858.953 322.858 754.737 374.315 695.538 438.255C587.28 548.523 471.983 651.236 357.786 755.237C336.782 774.521 312.167 786.817 286.061 797.151C218.876 823.397 152.288 851.277 84.9569 877.096C33.4679 887.917 33.5929 837.125 51.9969 803.274C82.4819 737.544 111.888 671.506 134.694 602.632C140.147 588.119 146.394 574.096 158.351 563.118C316.129 418.731 472.524 272.847 629.387 127.473C671.701 84.4735 735.485 58.8855 787.599 101.237C828.067 131.816 858.407 175.705 866.226 226.252C865.547 226.415 864.868 226.577 864.189 226.74ZM577.502 375.208C475.229 474.325 371.382 574.967 267.068 676.062C282.355 693.01 298.422 710.233 316.028 726.33C423.063 629.117 532.768 534.003 635.414 429.155C615.93 411.005 596.96 393.333 577.502 375.208ZM511.033 300.112C405.345 398.52 300.168 496.453 194.564 594.783C208.416 610.826 222.61 627.264 238.338 645.479C342.681 543.636 445.97 442.823 549.75 341.53C536.093 326.92 523.852 313.825 511.033 300.112ZM740.017 332.746C771.509 304.027 835.255 253.663 812.494 206.585C746.706 89.9645 700.949 116.001 619.406 199.264C659.925 244.107 699.781 288.217 740.017 332.746ZM274.408 749.697C240.205 713.159 206.909 677.589 174.655 643.132C159.169 679.946 143.72 716.957 127.99 753.849C124.389 762.296 118.674 770.287 129.712 777.657C134.223 784.437 138.046 793.07 142.584 800.069C186.793 783.177 230.302 766.551 274.408 749.697ZM544.049 269.928C584.723 313.301 624.972 356.22 665.379 399.309C680.179 385.866 693.882 373.42 707.709 360.86C667.185 317.314 626.926 274.051 586.479 230.588C571.828 244.172 558.447 256.578 544.049 269.928Z" fill="#000000"/>
<path d="M577.5 375.203C596.958 393.329 615.928 411 635.411 429.15C532.766 533.997 423.06 629.111 316.026 726.324C298.428 710.235 282.345 692.996 267.066 676.056C371.38 574.962 475.228 474.319 577.5 375.203Z" fill="white"/>
<path d="M511.031 300.109C523.849 313.822 536.091 326.917 549.748 341.527C445.968 442.82 342.68 543.633 238.336 645.476C222.608 627.26 208.415 610.823 194.562 594.78C300.166 496.45 405.344 398.517 511.031 300.109Z" fill="white"/>
<path d="M740.018 332.744C699.782 288.215 659.926 244.106 619.406 199.263C701.068 115.89 746.72 90.0456 812.493 206.586C835.234 253.723 771.572 303.932 740.018 332.744Z" fill="#000000"/>
<path d="M274.409 749.697C230.303 766.551 186.794 783.177 142.586 800.07C138.05 793.075 134.222 784.437 129.714 777.657C118.675 770.288 124.39 762.297 127.991 753.85C143.72 716.958 159.169 679.947 174.656 643.133C206.91 677.589 240.207 713.159 274.409 749.697Z" fill="white"/>
<path d="M544.051 269.926C558.449 256.577 571.83 244.17 586.481 230.586C626.928 274.049 667.187 317.312 707.711 360.858C693.884 373.418 680.181 385.864 665.381 399.307C624.974 356.218 584.725 313.298 544.051 269.926Z" fill="white"/>
</svg>